<svg width="48" height="48" viewBox="0 0 48 48" fill="none" xmlns="http://www.w3.org/2000/svg">
<path fill-rule="evenodd" clip-rule="evenodd" d="M18 6C18 4.89543 18.8954 4 20 4H28C29.1046 4 30 4.89543 30 6C30 7.10457 29.1046 8 28 8H20C18.8954 8 18 7.10457 18 6ZM6 14C6 12.8954 6.89543 12 8 12H40C41.1046 12 42 12.8954 42 14C42 15.1046 41.1046 16 40 16H8C6.89543 16 6 15.1046 6 14ZM20 20C18.8954 20 18 20.8954 18 22V34C18 35.1046 18.8954 36 20 36C21.1046 36 22 35.1046 22 34V22C22 20.8954 21.1046 20 20 20ZM26 22C26 20.8954 26.8954 20 28 20C29.1046 20 30 20.8954 30 22V34C30 35.1046 29.1046 36 28 36C26.8954 36 26 35.1046 26 34V22ZM14 22C14 20.8954 13.1046 20 12 20C10.8954 20 10 20.8954 10 22V42C10 43.1046 10.8954 44 12 44H36C37.1046 44 38 43.1046 38 42V22C38 20.8954 37.1046 20 36 20C34.8954 20 34 20.8954 34 22V40H14V22Z" fill="currentColor"/>
</svg>
