<svg width="48" height="48" viewBox="0 0 48 48" fill="none" xmlns="http://www.w3.org/2000/svg">
<path d="M15.6665 11.528C18.1332 9.87973 21.0333 9 24 9C24 9 24 9 24 9V12.5858C24 13.4767 25.0772 13.9229 25.7071 13.2929L32.2929 6.70711C32.9229 6.07714 32.4767 5 31.5858 5H24C24 5 24 5 24 5C20.2422 5 16.5687 6.11433 13.4442 8.20208C10.3196 10.2898 7.88436 13.2572 6.4463 16.729C5.00823 20.2008 4.63197 24.0211 5.36509 27.7067C6.09821 31.3924 7.90778 34.7778 10.565 37.435C13.2222 40.0922 16.6077 41.9018 20.2933 42.6349C23.9789 43.368 27.7992 42.9918 31.271 41.5537C34.7428 40.1156 37.7102 37.6804 39.7979 34.5558C41.8857 31.4313 43 27.7578 43 24C43 22.8954 42.1046 22 41 22C39.8954 22 39 22.8954 39 24C39 26.9667 38.1203 29.8668 36.4721 32.3336C34.8238 34.8003 32.4812 36.7229 29.7403 37.8582C26.9994 38.9935 23.9834 39.2906 21.0737 38.7118C18.1639 38.133 15.4912 36.7044 13.3934 34.6066C11.2956 32.5088 9.86701 29.8361 9.28823 26.9264C8.70945 24.0166 9.0065 21.0006 10.1418 18.2597C11.2771 15.5189 13.1997 13.1762 15.6665 11.528Z" fill="currentColor"/>
</svg>
